<svg width="60" height="61" viewBox="0 0 60 61" fill="none" xmlns="http://www.w3.org/2000/svg">
<g clip-path="url(#clip0_1_159)">
<path d="M41.6718 31.3571L44.2157 35.4933C47.279 40.4847 50.3461 45.4739 53.4169 50.4609C54.0112 51.4211 54.6241 52.368 55.2133 53.3282C55.6382 54.021 56.1011 54.6938 56.5 55.4066C56.7749 55.8978 57.136 56.3586 57.428 56.8417C57.7199 57.3247 58.0461 57.8181 58.3239 58.327C58.6776 58.9748 59.1271 59.5723 59.5409 60.1875C59.6805 60.3951 59.7311 60.6617 59.9636 60.8109C59.975 60.8215 59.9839 60.8343 59.9899 60.8486C59.9959 60.8629 59.9987 60.8782 59.9982 60.8937C59.9977 60.9091 59.9939 60.9243 59.987 60.9382C59.9802 60.9521 59.9704 60.9643 59.9584 60.9741C59.8938 61.0273 59.8276 60.9852 59.7556 60.9616C58.9138 60.6846 58.0699 60.4165 57.2296 60.1425C54.8027 59.3546 52.3758 58.5668 49.9489 57.779C48.0574 57.1682 46.1599 56.5662 44.2699 55.9591C43.1414 55.5979 42.0151 55.2293 40.8843 54.8748C40.752 54.8382 40.6289 54.7745 40.5227 54.6879C40.4165 54.6013 40.3297 54.4937 40.2677 54.3718C36.4446 47.3798 32.6192 40.3892 28.7916 33.4001C28.6252 33.095 28.4424 33.0012 28.1066 33.0072C26.8815 33.0271 25.655 33.0227 24.4299 33.0072C24.1542 33.0072 24.0502 33.0544 24.0525 33.3617C24.0673 35.4913 24.0673 37.6204 24.0525 39.7491C24.0525 40.0534 24.149 40.1066 24.4276 40.1051C26.2471 40.0933 28.068 40.1051 29.8867 40.0955C30.0903 40.0955 30.1943 40.1435 30.2946 40.3451C30.9855 41.7278 31.6987 43.1001 32.4082 44.4739C33.1942 45.9954 33.9822 47.5162 34.7722 49.0362C34.786 49.0701 34.7964 49.1052 34.8034 49.1411C34.6704 49.2149 34.5337 49.1795 34.4052 49.1802C31.088 49.1802 27.7701 49.1876 24.4499 49.1728C24.1119 49.1728 24.0465 49.2652 24.0502 49.5813C24.0673 51.1803 24.0502 52.7809 24.0643 54.3822C24.0643 54.6525 24.0071 54.7293 23.7226 54.7286C19.5874 54.7182 15.4518 54.7182 11.3156 54.7286C11.063 54.7286 10.9828 54.6724 10.9828 54.4073C10.9897 44.1807 10.9897 33.9538 10.9828 23.7267C10.9828 23.4076 11.1239 23.4106 11.358 23.4106C17.7472 23.4106 24.1364 23.4261 30.5212 23.4024C32.4818 23.3951 34.4223 23.1764 36.2522 22.3906C39.0285 21.1977 40.0961 18.9613 39.9059 16.1479C39.7187 13.3597 37.7655 11.7252 35.1779 11.0863C33.8629 10.7614 32.5182 10.6432 31.166 10.6432C24.1597 10.6368 17.1531 10.6383 10.1462 10.6476C9.80969 10.6476 9.59721 10.5302 9.39141 10.2997C8.73466 9.56113 8.07246 8.8282 7.40481 8.10092C6.29041 6.88593 5.16413 5.67832 4.0475 4.46407C3.3588 3.71144 2.67456 2.94995 1.98437 2.19141L0 0.00663719H0.297173C11.144 0.00885299 21.9864 -0.0206909 32.8302 0.0295337C36.4327 0.0457828 39.9809 0.567232 43.3524 1.92847C46.8337 3.3318 49.6197 5.54759 51.4087 8.8927C52.3708 10.6919 52.8203 12.6322 52.9956 14.6449C53.1925 16.9552 53.0699 19.2434 52.3738 21.4725C51.1851 25.2704 48.6896 27.9721 45.2223 29.8504C44.1648 30.4106 43.0576 30.8727 41.9148 31.2308C41.8323 31.2574 41.7432 31.2641 41.6718 31.3571Z" fill="#1D1D1B"/>
</g>
<defs>
<clipPath id="clip0_1_159">
<rect width="60" height="61" fill="white"/>
</clipPath>
</defs>
</svg>
