<svg width="33" height="23" viewBox="0 0 33 23" fill="none" xmlns="http://www.w3.org/2000/svg">
<path d="M2.29 0H13.74C14.3473 0 14.9298 0.241267 15.3593 0.670725C15.7887 1.10018 16.03 1.68265 16.03 2.29C16.03 2.89734 15.7887 3.47981 15.3593 3.90927C14.9298 4.33873 14.3473 4.58 13.74 4.58H2.29C1.68265 4.58 1.10018 4.33873 0.670725 3.90927C0.241267 3.47981 0 2.89734 0 2.29C0 1.68265 0.241267 1.10018 0.670725 0.670725C1.10018 0.241267 1.68265 0 2.29 0ZM18.32 18.32H29.77C30.3773 18.32 30.9598 18.5613 31.3893 18.9907C31.8187 19.4202 32.06 20.0026 32.06 20.61C32.06 21.2173 31.8187 21.7998 31.3893 22.2293C30.9598 22.6587 30.3773 22.9 29.77 22.9H18.32C17.7126 22.9 17.1302 22.6587 16.7007 22.2293C16.2713 21.7998 16.03 21.2173 16.03 20.61C16.03 20.0026 16.2713 19.4202 16.7007 18.9907C17.1302 18.5613 17.7126 18.32 18.32 18.32ZM2.29 9.16H29.77C30.3773 9.16 30.9598 9.40126 31.3893 9.83072C31.8187 10.2602 32.06 10.8426 32.06 11.45C32.06 12.0573 31.8187 12.6398 31.3893 13.0693C30.9598 13.4987 30.3773 13.74 29.77 13.74H2.29C1.68265 13.74 1.10018 13.4987 0.670725 13.0693C0.241267 12.6398 0 12.0573 0 11.45C0 10.8426 0.241267 10.2602 0.670725 9.83072C1.10018 9.40126 1.68265 9.16 2.29 9.16Z" fill="#0D63F3"/>
</svg>
