<svg width="135" height="38" viewBox="0 0 135 38" fill="none" xmlns="http://www.w3.org/2000/svg">
<path d="M0.125977 37V0.989258H6.30273V31.873H22.0742V37H0.125977ZM42.0078 0.28125C47.9811 0.28125 52.4082 2.4541 55.2891 6.7998C57.3724 9.94108 58.4141 14.0101 58.4141 19.0068C58.4141 23.971 57.3724 28.04 55.2891 31.2139C52.4245 35.5433 47.8997 37.708 41.7148 37.708C35.5299 37.708 31.0052 35.5433 28.1406 31.2139C26.0573 28.04 25.0156 23.9873 25.0156 19.0557C25.0156 14.0264 26.0573 9.94108 28.1406 6.7998C31.0215 2.4541 35.6439 0.28125 42.0078 0.28125ZM41.5439 5.65234C38.1585 5.65234 35.6357 6.75098 33.9756 8.94824C32.1852 11.292 31.29 14.6449 31.29 19.0068C31.29 27.8936 34.765 32.3369 41.7148 32.3369C45.2305 32.3369 47.8102 31.2383 49.4541 29.041C51.2445 26.6647 52.1396 23.3363 52.1396 19.0557C52.1396 14.6449 51.2445 11.2757 49.4541 8.94824C47.7777 6.75098 45.141 5.65234 41.5439 5.65234ZM82.1562 23.377V18.543H95.1445V35.4863C90.8965 36.9674 86.152 37.708 80.9111 37.708C77.2653 37.708 74.36 37.1546 72.1953 36.0479C69.2168 34.5179 66.987 31.9951 65.5059 28.4795C64.4316 25.9242 63.8945 22.8643 63.8945 19.2998C63.8945 13.4567 65.4001 8.79362 68.4111 5.31055C71.3083 1.95768 75.4017 0.28125 80.6914 0.28125C86.2578 0.28125 90.221 1.91699 92.5811 5.18848C93.2972 6.16504 93.7936 7.16602 94.0703 8.19141C94.3633 9.20052 94.5098 10.4538 94.5098 11.9512H88.5283C88.4307 10.2585 87.9424 8.91569 87.0635 7.92285C85.6637 6.36035 83.5479 5.5791 80.7158 5.5791C77.2002 5.5791 74.5635 6.84049 72.8057 9.36328C71.0479 11.8698 70.1689 15.1413 70.1689 19.1777C70.1689 23.2793 71.1211 26.5589 73.0254 29.0166C73.9531 30.1885 75.0762 31.0511 76.3945 31.6045C77.7129 32.1416 79.3568 32.4102 81.3262 32.4102C83.9303 32.4102 86.5671 31.9707 89.2363 31.0918V23.377H82.1562ZM118.594 0.28125C124.567 0.28125 128.994 2.4541 131.875 6.7998C133.958 9.94108 135 14.0101 135 19.0068C135 23.971 133.958 28.04 131.875 31.2139C129.01 35.5433 124.486 37.708 118.301 37.708C112.116 37.708 107.591 35.5433 104.727 31.2139C102.643 28.04 101.602 23.9873 101.602 19.0557C101.602 14.0264 102.643 9.94108 104.727 6.7998C107.607 2.4541 112.23 0.28125 118.594 0.28125ZM118.13 5.65234C114.744 5.65234 112.222 6.75098 110.562 8.94824C108.771 11.292 107.876 14.6449 107.876 19.0068C107.876 27.8936 111.351 32.3369 118.301 32.3369C121.816 32.3369 124.396 31.2383 126.04 29.041C127.83 26.6647 128.726 23.3363 128.726 19.0557C128.726 14.6449 127.83 11.2757 126.04 8.94824C124.364 6.75098 121.727 5.65234 118.13 5.65234Z" fill="#0D63F3"/>
</svg>
