<svg width="42" height="42" viewBox="0 0 42 42" fill="none" xmlns="http://www.w3.org/2000/svg">
<g clip-path="url(#clip0_0_22)">
<path d="M21 42C32.598 42 42 32.598 42 21C42 9.40202 32.598 0 21 0C9.40202 0 0 9.40202 0 21C0 32.598 9.40202 42 21 42Z" fill="url(#paint0_linear_0_22)"/>
<path fill-rule="evenodd" clip-rule="evenodd" d="M9.50578 20.7783C15.6277 18.1111 19.71 16.3527 21.7525 15.5031C27.5844 13.0774 28.7963 12.656 29.5861 12.6421C29.7598 12.6391 30.1483 12.6821 30.3999 12.8863C30.6123 13.0587 30.6708 13.2915 30.6987 13.455C30.7267 13.6184 30.7615 13.9907 30.7339 14.2817C30.4178 17.6023 29.0503 25.6605 28.3547 29.3796C28.0603 30.9533 27.4806 31.4809 26.9195 31.5326C25.7 31.6448 24.7739 30.7266 23.5928 29.9524C21.7445 28.7408 20.7004 27.9866 18.9063 26.8043C16.8329 25.438 18.177 24.6871 19.3586 23.4598C19.6678 23.1387 25.041 18.2513 25.145 17.808C25.158 17.7525 25.1701 17.5458 25.0473 17.4367C24.9245 17.3276 24.7433 17.3649 24.6125 17.3946C24.4271 17.4366 21.4745 19.3882 15.7546 23.2493C14.9165 23.8248 14.1574 24.1052 13.4772 24.0905C12.7274 24.0743 11.2851 23.6666 10.2129 23.318C8.89773 22.8905 7.8525 22.6645 7.94351 21.9385C7.99092 21.5603 8.51168 21.1736 9.50578 20.7783Z" fill="white"/>
</g>
<defs>
<linearGradient id="paint0_linear_0_22" x1="21" y1="0" x2="21" y2="41.6885" gradientUnits="userSpaceOnUse">
<stop stop-color="#2AABEE"/>
<stop offset="1" stop-color="#229ED9"/>
</linearGradient>
<clipPath id="clip0_0_22">
<rect width="42" height="42" fill="white"/>
</clipPath>
</defs>
</svg>
