<svg width="42" height="42" viewBox="0 0 42 42" fill="none" xmlns="http://www.w3.org/2000/svg">
<path d="M30.0589 15.1611C32.7598 17.0986 36.0685 18.2386 39.642 18.2386V11.3376C38.9657 11.3377 38.2912 11.2669 37.6295 11.1263V16.5584C34.0562 16.5584 30.748 15.4184 28.0464 13.481V27.564C28.0464 34.6091 22.3556 40.3198 15.336 40.3198C12.7168 40.3198 10.2823 39.5252 8.26007 38.1623C10.5682 40.5307 13.787 42 17.348 42C24.3681 42 30.0592 36.2892 30.0592 29.2439V15.1611H30.0589ZM32.5416 8.19874C31.1613 6.6854 30.255 4.72968 30.0589 2.56756V1.67993H28.1518C28.6318 4.42799 30.2692 6.77577 32.5416 8.19874ZM12.7 32.7562C11.9288 31.7414 11.512 30.5 11.5139 29.2237C11.5139 26.0015 14.1169 23.389 17.3282 23.389C17.9267 23.3888 18.5216 23.4808 19.092 23.6624V16.6071C18.4254 16.5154 17.7527 16.4765 17.0803 16.4908V21.9823C16.5095 21.8007 15.9143 21.7084 15.3157 21.709C12.1044 21.709 9.50154 24.3213 9.50154 27.5438C9.50154 29.8224 10.8026 31.7952 12.7 32.7562Z" fill="#FF004F"/>
<path d="M28.0463 13.4808C30.7479 15.4182 34.0561 16.5582 37.6294 16.5582V11.1261C35.6348 10.6997 33.8691 9.65371 32.5415 8.19874C30.269 6.77563 28.6317 4.42785 28.1517 1.67993H23.1421V29.2436C23.1308 32.4569 20.5323 35.0588 17.3278 35.0588C15.4395 35.0588 13.7619 34.1555 12.6994 32.7562C10.8022 31.7952 9.50115 29.8223 9.50115 27.544C9.50115 24.3217 12.104 21.7091 15.3153 21.7091C15.9306 21.7091 16.5236 21.8053 17.0799 21.9824V16.4909C10.1836 16.6339 4.63733 22.2889 4.63733 29.2437C4.63733 32.7155 6.01848 35.8628 8.26011 38.1625C10.2824 39.5252 12.7168 40.32 15.336 40.32C22.3557 40.32 28.0465 34.609 28.0465 27.564V13.4808H28.0463Z" fill="#1E1E1E"/>
<path d="M37.6294 11.1262V9.65735C35.8308 9.66009 34.0675 9.15458 32.5415 8.19863C33.8924 9.68286 35.6712 10.7063 37.6294 11.1262ZM28.1517 1.67997C28.1059 1.41734 28.0708 1.15299 28.0464 0.887624V0H21.1295V27.5639C21.1185 30.7768 18.5201 33.3787 15.3154 33.3787C14.3745 33.3787 13.4862 33.1546 12.6995 32.7563C13.7619 34.1555 15.4395 35.0587 17.3279 35.0587C20.532 35.0587 23.131 32.4571 23.1422 29.2437V1.67997H28.1517ZM17.0802 16.491V14.9273C16.5023 14.848 15.9196 14.8082 15.3362 14.8085C8.31585 14.8084 2.625 20.5194 2.625 27.5639C2.625 31.9804 4.8616 35.8727 8.2603 38.1622C6.01867 35.8627 4.63751 32.7153 4.63751 29.2436C4.63751 22.2889 10.1837 16.6339 17.0802 16.491Z" fill="#00F2EA"/>
</svg>
